<svg width="400" height="490" viewBox="0 0 400 490" fill="none" xmlns="http://www.w3.org/2000/svg">
<path d="M376.125 125.006C385.575 115.556 390.775 103.005 390.775 89.6546C390.775 76.3039 385.575 63.7533 376.125 54.3028L336.475 14.6507C327.025 5.20026 314.475 0 301.125 0C287.775 0 275.225 5.20027 265.8 14.6257L0 279.614V389.995H110.325L376.125 125.006ZM301.125 50.0026L340.8 89.6296L301.05 129.232L261.4 89.6046L301.125 50.0026ZM50 339.992V300.365L226 124.906L265.65 164.558L89.675 339.992H50ZM0 439.997H400V490H0V439.997Z" fill="#FBBC05"/>
</svg>
